<svg version="1.2" xmlns="http://www.w3.org/2000/svg" viewBox="0 0 20 26" width="20" height="26"><defs><clipPath clipPathUnits="userSpaceOnUse" id="cp1"><path d="m-630-739h1280v800h-1280z"/></clipPath></defs><style>.a{fill:#4e2d7f}</style><g clip-path="url(#cp1)"><path fill-rule="evenodd" class="a" d="m19.7 15.1q-0.4-1.3-1.5-1.3-0.4 0-0.8 0.2 0 0-5.9 5.8v-17.7q0-0.4 0-0.7-0.5-1.1-1.5-1.1-0.2 0-0.6 0.1-1 0.5-1 1.7v17.7l-4.9-4.9q-0.9-1.1-1.6-1.1-0.3 0-0.5 0.1-1.1 0.4-1.1 1.2v0.5q0 0.3 0.2 0.5 0 0.1 9.5 9.6 4.8-4.8 8.5-8.6 1.2-0.9 1.2-1.7z"/></g></svg>