<svg version="1.2" xmlns="http://www.w3.org/2000/svg" viewBox="0 0 161 52" width="161" height="52"><defs><clipPath clipPathUnits="userSpaceOnUse" id="cp1"><path d="m-336-613h1280v800h-1280z"/></clipPath></defs><style>.a{fill:#4e2d7f}</style><g clip-path="url(#cp1)"><path fill-rule="evenodd" class="a" d="m15.9 50.9q0.2 0 0.1 0 0.1 0 0.1 0 0 0.1 0.1 0.1 0.4 0 0.6 0 0.1 0 0.2 0 0.1 0 0.2 0h0.2q0.1 0 0.3 0 0.2 0 0.4-0.1 0.5 0 1-0.1 0.5-0.2 0.9-0.3 0.2 0 0.2 0h0.1l0.2-0.1q0.2-0.1 0.3-0.1 0.1 0 0.3-0.1 0.2 0 0.5-0.1 0.4-0.1 0.6-0.2l2.3-0.9q2.4-1.1 4.7-2.5 2.2-1.4 4.4-3 2.3-1.6 4.5-3.4 2.1-1.7 4.2-3.6 3.7-3.4 7.3-7.2 1.3-1.4 2.5-2.7 1.2-1.4 2.4-2.7 0.6-0.7 1.1-1.3 0 0.4 0 0.8-0.1 0.8 0 1.6-0.1 0-0.1 0.1-0.9 1-1.8 2-1.6 1.7-3.2 3.4-1.5 1.6-3.2 3.2-2 2-4 3.9-2.1 1.8-4.2 3.6-2.3 1.8-4.6 3.4-2.2 1.7-4.7 3.2-2.2 1.2-4.6 2.3-2.3 1-4.8 1.6-1.5 0.3-3.1 0.3-1.5 0-3-0.6-2.4-1.1-3.4-3.5-0.6-1.2-0.7-2.6-0.2-1.4-0.2-2.8 0-1.7 0.3-3.4 0.3-1.7 0.6-3.5 0.5-1.9 1.1-3.8 0.6-2 1.3-3.8 0.2-0.5 0.5-1 0.2-0.5 0.4-1.1l-1.1 0.1q-3 0.2-6.1-0.2-3-0.5-5.7-2.2-0.1-0.1-0.3-0.3-0.2-0.2 0-0.4 0.2-0.1 0.5-0.1 0.3 0.1 0.5 0.2 0.3 0.2 0.6 0.3 0.3 0.1 0.6 0.3 0.1 0.1 0.1 0.1 0.2 0 0.2 0.1 0 0 0.1 0 0.5 0.2 0.6 0.3 0.5 0.1 0.6 0.2 0.1 0 0.1 0 0 0.1 0.1 0l0.3 0.2 1.3 0.3q0.2 0 0.4 0 0.2 0.1 0.4 0.1h0.1q0 0 0.1 0 0.1 0.1 0.2 0.1 0.1-0.1 0.2 0 0.4 0 0.7 0.1 0.3 0 0.8 0 0.8 0 1.5 0 0.7 0 1.5 0 0.5-0.1 1.1-0.2 0.6 0 1.1-0.1 0.6-1.2 1.2-2.3 0.5-1.2 1.1-2.3 1.1-1.9 2.2-3.7 1.2-1.8 2.5-3.6 1.1-1.6 2.4-3.1 1.3-1.5 2.8-2.8 1.2-1.2 2.6-2.3 1.4-1 3-1.8 1.4-0.6 2.8-1 1.5-0.4 3.1-0.4 0.8 0.1 1.7 0.3 0.9 0.2 1.6 0.6 1.6 1.2 1.6 3.2 0 1.1-0.4 2.2-0.4 1-1 2-0.7 1.4-1.7 2.6-0.9 1.2-2 2.3-2.6 2.6-5.6 4.5-3 2-6.3 3.5-2.5 1-5 1.8-2.6 0.7-5.2 1.2-1.6 3.4-2.7 6.9-0.5 1.7-1 3.7-0.1 0.4-0.2 0.9-0.1 0.4-0.2 0.9-0.1 0.3-0.1 0.4 0 0.2 0 0.4-0.1 0.3-0.1 0.5 0 0.2-0.1 0.3-0.1 1.5-0.2 3.1 0 1.5 0.2 3 0 0.1 0.1 0.3 0 0.2 0 0.3 0.1 0.1 0.1 0.3 0 0.1 0.1 0.1v0.1q0.1 0.3 0.1 0.6 0.1 0.3 0.2 0.6 0.2 0.1 0.3 0.4 0.1 0.1 0.1 0.2 0 0 0 0.1 0.1 0 0.1 0 0 0 0 0.1 0.1 0.2 0.3 0.4 0.2 0.2 0.4 0.5h0.1q0 0.1 0.1 0.2l0.3 0.2h0.1q0.2 0.2 0.4 0.3 0 0 0 0 0 0 0.1 0 0 0.1 0.1 0.1 0.1 0 0.1 0 0.1 0.1 0.2 0.1 0 0 0.1 0 0 0.1 0 0.1 0.2 0 0.3 0 0.2 0.1 0.3 0.1h0.2-0.1 0.1zm41-29.3q-0.3-0.1-0.5 0.1-0.4 0.5-0.8 1 0.1-1 0.2-1.9 0.1-1.3 0.4-2.6 0.3-1.5 0.6-3 0.4-1.4 0.9-2.9 0.5-1.4 1.1-2.7 0.5-1.4 1.3-2.7 0.7-1.2 1.5-2.3 0.8-1.2 1.7-2.1 1-0.8 2.1-1.4 1.1-0.6 2.3-0.8 1.1-0.3 2.3-0.1 1.1 0.2 2 1.1 0.6 0.7 0.6 1.6 0 1-0.1 1.9-0.3 1.2-0.8 2.4-0.6 1.2-1.2 2.3-1.5 2.7-3.6 5.3-1 1.3-2.1 2.5-1.1 1.2-2.3 2.2-1 0.9-2.1 1.6-1.1 0.8-2.4 1.4-0.1 0-0.3 0 0 0 0.1-0.1 0.1-0.2 0-0.4-0.1-0.2-0.4-0.2-0.1-0.1-0.5-0.2zm0.4 1.4q-0.1 0.1-0.2 0.2 0-0.4 0.1-0.8 0.3 0.1 0.5 0.1-0.3 0.4-0.4 0.5zm-36.9-5.5q-1 1.7-2 3.5-0.9 1.8-1.7 3.5 0.5-0.1 1.1-0.2 0.5-0.1 1.1-0.3 3.2-0.8 6.3-2.2 3.1-1.4 6-3.3 3-1.9 5.6-4.5 1.1-1.1 2-2.3 1-1.2 1.7-2.5 0.3-0.5 0.5-1.1 0.3-0.5 0.5-1 0.1-0.6 0.2-1 0.1-0.4 0.1-0.9 0-0.2 0-0.4-0.1-0.2-0.1-0.5l-0.1-0.1v-0.1q0-0.1-0.1-0.3 0-0.1-0.1-0.1 0-0.1 0-0.1l-0.1-0.1q0 0-0.1-0.1 0 0-0.1-0.1v-0.1q-0.1 0-0.1 0 0 0-0.1-0.1l-0.2-0.1q-0.1-0.1-0.2-0.1 0 0 0 0h-0.1q0-0.1-0.1-0.1-0.4 0-0.7-0.1-0.1 0-0.2 0-0.1 0-0.2 0 0 0-0.1 0-0.5-0.1-0.7-0.1-0.1 0.1-0.2 0l-0.3 0.1h-0.7q-0.4 0.1-0.7 0.2-0.2 0-0.3 0.1h-0.1-0.2q-0.7 0.2-1.3 0.5-0.7 0.3-1.4 0.6-0.2 0.2-0.4 0.2-0.1 0.1-0.3 0.2l-0.2 0.2h-0.1q-0.1 0-0.1 0.1-0.1 0.1-0.2 0.1-0.4 0.2-0.7 0.5-0.3 0.2-0.6 0.5-1.5 1.1-2.9 2.4-1.3 1.3-2.5 2.7-1.3 1.5-2.5 3.2-1.1 1.6-2.3 3.3zm51.5 5.9q0 0 0.1 0-0.1-0.1-0.1 0zm12.7-5.1q-0.2 0-0.5 0.1-0.3 0.2-0.5 0.4 0.4-0.9 1.1-1.7 0.6-0.8 1.4-1.4 0.4-0.3 0.9-0.5 0.4-0.2 0.8-0.3 1.2-0.3 2.1 0.3 0.5 0.2 0.7 0.6 0.3 0.3 0.2 0.8-0.1 0.4-0.3 0.8-0.3 0.3-0.6 0.6-0.7 0.9-1.6 1.6-0.9 0.7-1.8 1.4-0.6 0.4-1.1 0.7-0.5 0.4-1.1 0.7v0.1l0.1 0.2v0.1q0 0.1 0.1 0.3 0 0.1 0.1 0.1 0 0 0 0.1v0.1h0.1l0.1 0.2h0.1v0.1l0.1 0.1q0-0.1 0.1 0 0 0 0 0.1 0 0 0.1 0h0.1q0 0 0 0 0 0 0 0 0 0 0 0 0 0 0 0 0 0 0 0 0 0.1 0.1 0.1 0.1 0 0.2 0 0 0.1 0 0.1 0 0 0 0 0.1 0 0.1 0 0.1 0 0.2 0 0 0.1 0.1 0.1 0-0.1 0.1 0 0 0 0.1 0 0.1 0 0.1 0 0.1 0 0.1 0 0.1 0.1 0.2 0 0.2 0.1 0.7 0.1h0.3 0.1q0.1 0 0.2 0 1.9-0.1 3.5-0.8 1.7-0.6 3.3-1.5 1.4-0.8 2.7-1.8 1.4-0.9 2.6-2 0.5-0.5 1.1-1 0.1-0.1 0.2-0.2-0.3 0.7-0.5 1.5-0.1 0.5-0.1 1.1-0.4 0.3-0.7 0.6-1.5 1.1-3.1 2.1-1.6 1-3.2 1.8-1.7 0.7-3.6 1-1.8 0.4-3.6 0.1-1.2-0.2-2.2-0.8-1.1-0.6-1.4-1.8-0.2-0.8-0.1-1.6 1.1-0.7 2.2-1.4-0.2 0.4-0.4 0.8 0 0 0 0.1 0 0-0.1 0.1 0.4-0.3 0.7-0.5 0.2-0.2 0.6-0.4 0.8-0.7 1.6-1.4 0.9-0.6 1.5-1.5 0 0 0.1-0.1 0 0 0.1-0.2 0-0.1 0.1-0.1 0 0 0-0.1 0.1-0.1 0.1-0.2 0 0 0-0.1v-0.2q-0.1 0.1-0.2 0h-0.1-0.1l-0.2 0.1h-0.1q-0.4 0.1-0.6 0.3-0.1 0-0.2 0.1h-0.1q-0.1 0.1-0.2 0.2 0 0-0.1 0.1-0.2 0.1-0.4 0.3-0.2 0.1-0.4 0.3-0.1 0.1-0.3 0.3-0.1 0.2-0.3 0.4-0.1 0.2-0.3 0.4 0 0-0.1 0.1v0.1l-0.1 0.1q-0.1 0.1-0.1 0.1-0.2-0.1-0.3-0.2-0.2-0.1-0.5-0.2zm16.7-1.3q0.1-0.2 0.2-0.3 0.5-1 1.1-1.8 0.7-0.8 1.5-1.4 0.4-0.3 0.8-0.5 0.4-0.2 0.9-0.3 1.1-0.3 2.1 0.3 0.4 0.2 0.7 0.5 0.2 0.4 0.2 0.9-0.1 0.4-0.4 0.8-0.2 0.3-0.5 0.6-0.8 0.9-1.7 1.6-0.8 0.7-1.8 1.4-0.5 0.4-1 0.7-0.6 0.4-1.1 0.7v0.1 0.2 0.1q0.1 0.1 0.2 0.3 0 0.1 0 0.1 0.1 0 0.1 0.1v0.1l0.2 0.2v0.1l0.2 0.1q0-0.1 0.1 0 0 0 0 0.1 0 0 0.1 0h0.1q0 0 0 0 0 0 0 0 0 0 0 0 0 0.1 0 0.1 0.1 0 0.2 0 0 0 0.1 0.1 0 0 0 0 0.1 0 0.1 0 0 0 0.1 0 0.1 0.1 0.1 0 0.1 0 0.1 0.1 0.1 0 0.2 0 0.1 0 0.1 0 0.1 0 0.1 0 0 0 0.1 0 0.2 0.1 0.8 0.1h0.3l0.1-0.1q0.1 0.1 0.2 0.1 1.8-0.1 3.5-0.8 1.7-0.6 3.2-1.5 1.5-0.8 2.8-1.8 1.3-0.9 2.6-2 0.5-0.5 1-1 0.2-0.1 0.4-0.3-0.1 0.2-0.2 0.4-0.4 1.1-0.6 2.3-0.3 0.3-0.7 0.6-1.5 1.1-3 2.1-1.6 1-3.3 1.7-1.7 0.8-3.5 1.1-1.8 0.4-3.7 0.1-1.1-0.2-2.1-0.8-1.1-0.6-1.5-1.8-0.1-0.4-0.1-0.8 0.5-0.4 1-0.9 0.5-0.4 1-0.9-0.1 0.2-0.1 0.4-0.1 0-0.1 0.1 0 0 0 0.1 0.3-0.3 0.6-0.5 0.3-0.2 0.7-0.4 0.8-0.7 1.6-1.4 0.8-0.7 1.5-1.5 0 0 0-0.1h0.1q0 0 0.1-0.2 0-0.1 0-0.1 0 0 0.1-0.1 0-0.1 0-0.2 0.1 0 0.1-0.1l-0.1-0.2q-0.1 0-0.1 0h-0.1-0.1-0.2l-0.1 0.1q-0.4 0.1-0.6 0.3-0.1 0-0.2 0.1h-0.1q-0.1 0.1-0.2 0.1-0.1 0.1-0.2 0.1-0.2 0.2-0.3 0.4-0.2 0.1-0.4 0.3-0.2 0.1-0.3 0.3-0.2 0.2-0.3 0.4-0.2 0.2-0.4 0.4 0 0 0 0.1l-0.2 0.2q0 0 0 0.1-0.1-0.1-0.2-0.2-0.3-0.2-0.6-0.2-0.3-0.1-0.5 0.1-0.4 0.4-0.8 0.8zm18.1-2.3q0.3-0.9 0.7-1.8 0.6-1 1.3-2 0.3-0.2 0.5-0.5 0.3-0.2 0.6-0.5 0.4-0.3 0.7-0.4 0.4-0.2 0.9 0 0.4 0.1 0.5 0.5 0.1 0.3 0 0.6-0.2 0.5-0.5 0.8-0.3 0.4-0.7 0.8-0.9 1.2-1.9 2.2 0 0 0 0-0.1-0.2-0.4-0.3-0.2-0.2-0.6-0.2-0.3-0.1-0.4 0.1-0.4 0.4-0.7 0.7zm2 0.1l-0.1 0.2q-0.3 0.3-0.6 0.6 0.1-0.3 0.2-0.6 0.1-0.1 0.2-0.2 0.2-0.2 0.4-0.4 0.1 0.2-0.1 0.4zm-0.7 0.8q0 0.1-0.1 0.2-0.1 0.4-0.2 0.8-0.4 1.4-0.5 2.8 0.2-0.4 0.4-0.8 0.2-0.4 0.4-0.7 1.3-2 3.1-3.5 1.8-1.5 4.3-2 0.4-0.1 0.8-0.1 0.5 0 1 0.2 0.8 0.2 0.9 1 0.1 0.4 0 0.9-0.1 0.5-0.2 1v0.2q0 0 0 0.1v0.4 0.1q0 0-0.1 0 0 0 0 0h0.1q0.1 0 0.3 0h0.2 0.2l0.4-0.1q1.3-0.2 2.7-0.8 1.4-0.5 2.8-1.2 1.3-0.6 2.6-1.4 0.5-0.3 1-0.5 0.5-0.3 1-0.6 0 0.6 0.3 1 0.1 0.1 0.2 0.3-0.3 0.2-0.5 0.3-0.9 0.5-1.9 1.1-1.4 0.7-2.8 1.3-1.4 0.7-2.9 1.1-1 0.3-2.1 0.5-1.2 0.2-2.1-0.3-0.6-0.3-0.8-0.8-0.2-0.5-0.1-1.1 0-0.5 0.1-1.1 0.1 0 0.1-0.1 0-0.1 0-0.2 0-0.1 0-0.1 0-0.1 0-0.2l-0.1 0.1q-0.3 0-0.6 0.1-0.2 0-0.5 0.1-2.1 0.7-3.7 2.3-1.6 1.5-2.7 3.4-0.6 1.1-1.1 2.2-0.5 1.1-0.8 2.2-0.1 0.3-0.4 0.3-0.3 0-0.4-0.1-0.2-0.1-0.5-0.2-0.2-0.1-0.2-0.4-0.2-2.1 0-4.2 0.1-0.8 0.3-1.7 0.5-0.4 1.1-0.9 0.5-0.4 1-0.9zm21.1-4q0 0 0 0-0.1-1 0.5-1.8 0.5-0.8 1.1-1.5 0.8-0.7 1.5-1.1 0.3-0.1 0.6-0.3 0.3-0.1 0.7-0.2 0.4 0 0.9 0.2 0.5 0.2 0.7 0.7 0.1 0.3-0.1 0.6-0.1 0.3-0.3 0.5-0.5 0.6-1.1 1.2-0.7 0.5-1.4 1-0.3 0.3-0.8 0.6-0.1 0-0.2 0.1 0 0 0 0 0-0.1-0.1-0.2-0.1 0-0.2-0.1-0.3-0.1-0.6-0.2-0.2 0-0.4 0.1 0 0 0 0-0.1 0.1-0.2 0.1-0.4 0.2-0.6 0.3 0 0 0 0zm2.2 0.2q0 0.1-0.1 0.2l-0.3 0.2q-0.1 0-0.2 0.1v-0.1l-0.1-0.2q0.3-0.2 0.6-0.4 0 0.1 0.1 0.2zm-41.3 6q0.1-0.2 0.2-0.5 0.2-0.4 0.5-0.8 0.1 0 0.1 0.1 0.2 0.2 0 0.4l-0.2 0.2q-0.3 0.3-0.6 0.6zm-17.7 1.8q0-0.1 0-0.1 0.2-0.4 0.4-0.8 0 0.1 0.1 0.1 0.2 0.3 0 0.4-0.3 0.2-0.5 0.4zm-3.8 2.3q-1.4 0.9-2.9 1.6-1.5 0.7-3.1 1.1-1 0.2-1.9 0.1-1 0-1.9-0.5-0.6-0.3-1-0.9-0.5-0.5-0.8-1.1-0.1-0.1-0.2-0.2-0.1-0.2-0.1-0.3-0.1-0.1-0.1-0.2-0.1 0-0.1-0.1h-0.1q0-0.1-0.1-0.2-0.1-0.1-0.1-0.2l-0.1-0.1q0 0-0.1 0v-0.1h-0.1-0.2q0 0.1-0.1 0.1-0.1 0-0.2 0.1l-0.4 0.2q-0.2 0.1-0.3 0.1v0.1h-0.1q0 0 0 0 0 0.1-0.1 0.1-0.6 0.4-1 0.8-1.3 1-2.4 2.1-1.1 1-2.2 2.1-0.9 0.9-1.9 1.7-0.3 0.2-0.7 0.5-0.4 0.2-0.8 0.2-0.9 0.1-1.5-0.4-0.5-0.6-0.7-1.3-0.3-1-0.3-1.9 0-0.1 0-0.2 0.7-0.9 1.5-1.9-0.1 1.3 0 2.6 0 0.5 0.1 0.9l0.1 0.3v0.2q0 0.1 0 0.1 0.1 0 0.1 0 0 0.2 0.1 0.5v0.1l0.2-0.1q0 0 0 0l0.2-0.2q0.2-0.1 0.4-0.3 0.2-0.1 0.4-0.3 1.1-1 2.1-1.9 1.1-1 2.2-2.1 0.5-0.5 1-0.9 0.6-0.5 1.2-1 0.4-0.3 0.9-0.7 0.5-0.3 1.1-0.5 1.3-0.4 2.3 0.4 0.4 0.3 0.8 0.8 0.2 0.3 0.3 0.5 0.2 0.3 0.3 0.5 0 0.1 0.1 0.2l0.1 0.1q0.1 0.2 0.3 0.5 0.1 0.1 0.1 0.1 0.1 0 0.1 0.1l0.1 0.1q0 0 0.1 0.1 0 0 0 0 0.1 0 0.1 0l0.2 0.2q0.1 0.1 0.2 0.1 0 0 0.1 0 0 0.1 0.1 0 0.1 0.1 0.2 0.1 0.1 0 0.2 0 0.1 0 0.2 0h0.2q0.3 0 0.5 0 0.2-0.1 0.5-0.1 0.2 0 0.3-0.1h0.1q0.2-0.1 0.3-0.1 0.2 0 0.3-0.1 0.3-0.1 0.7-0.3 0.3-0.1 0.6-0.2 2-0.9 3.9-2 1.5-1 3.1-2-0.1 0-0.1 0.1-0.4 0.8-0.7 1.8 0 0.1 0 0.3-0.8 0.5-1.6 0.9zm-22.9-5.9q-0.2 0.7-0.3 1.4-0.2 0.7-0.3 1.4-0.2 0.7-0.3 1.3 0 0.6-0.1 1.3 0.2-0.1 0.3-0.2 0.2-0.1 0.3-0.1 0.1-0.2 0.3-0.2 0.1 0 0.2-0.2h0.1q0 0 0 0 0.1 0 0.1-0.1 0.2 0 0.3-0.1 1.2-0.9 2.3-1.8 1.1-1 2.1-2 2.2-2.5 3.9-4.9 0.9-1.3 1.6-2.5 0.8-1.3 1.3-2.6 0.3-0.6 0.5-1.1 0.2-0.6 0.3-1.2l0.1-0.4q0-0.1 0-0.2 0-0.1 0.1-0.1v-0.1-0.1q0.1-0.3 0-0.8v-0.4l-0.1-0.2v-0.1q-0.1-0.2-0.1-0.3-0.1 0-0.1-0.1v-0.1l-0.2-0.1-0.1-0.1q-0.1 0-0.1-0.1-0.1 0.1-0.1 0-0.1 0-0.1 0-0.1 0-0.1 0h-0.1q-0.1-0.1-0.2 0-0.1 0-0.1-0.1 0 0-0.1 0h-0.2q-0.3 0.1-0.6 0.1-0.3 0.1-0.5 0.1l-0.2 0.1q-0.2 0-0.3 0.1-0.2 0-0.5 0.1-0.3 0.2-0.5 0.3-0.3 0.1-0.5 0.2l-0.1 0.1q-0.1 0-0.1 0l-0.2 0.2q-0.2 0.1-0.5 0.4-0.2 0.1-0.5 0.3-0.2 0.2-0.4 0.4-0.5 0.5-0.9 1-0.4 0.5-0.8 0.9-0.2 0.3-0.3 0.6-0.2 0.2-0.4 0.5-0.2 0.3-0.4 0.6-0.1 0.3-0.3 0.7-0.8 1.3-1.3 2.6-0.5 1.3-1 2.8-0.4 1.4-0.8 2.8zm-0.7 12q0.1 0 0.1 0zm11-7.1q0 0 0 0zm16.7 3.1q0 0 0 0 0 0 0 0zm0.4 0.1q-0.1 0-0.1 0 0 0 0 0 0 0 0 0 0 0 0.1 0zm-0.3-0.1q0 0 0 0 0 0 0 0zm17.9-2.2q0-0.1 0 0 0-0.1 0 0zm0.4 0.1q-0.1 0-0.1 0 0 0 0 0 0 0 0 0 0 0 0.1 0zm-0.3-0.1q0 0 0 0 0 0 0 0zm39.3-10.6q0.1-0.1-0.1 0 0.1 0 0.1 0zm-12.1 5q0 0 0 0 0 0 0 0zm-6.1-5.8q-0.1 0-0.1 0.1 0.1-0.1 0.1-0.1zm5.1 3q0.1 0 0.1-0.1zm0.1 0q0.1 0.1 0.1 0.1 0 0-0.1-0.1zm29.3-4.2q0.7-0.1 1.1 0.4 0.1 0.2 0.1 0.4-0.1 0.1-0.3 0.1-0.1 0.1-0.2 0.1 0 0-0.1 0l-0.1 0.1q-1.2 0.3-2.2 0.7-1.1 0.5-2.1 1-1.6 0.8-3.1 1.5-1.6 0.8-3.1 1.7-0.4 0.2-0.8 0.4-0.4 0.2-0.8 0.5-0.4 0.2-0.8 0.5-0.2 0.1-0.4 0.2-0.1 0-0.1 0.1 0 0-0.1 0 0.3 1.3 0.1 2.5-0.3 1.8-1.4 3.2-1.1 1.5-2.7 2.3-0.7 0.3-1.4 0.5-0.6 0.2-1.4 0.1-0.6-0.1-1.1-0.5-0.6-0.3-0.9-0.8-0.2-0.5-0.2-0.9 0.1-0.5 0.3-0.9 0.2-0.4 0.5-0.8 0.3-0.5 0.6-0.7 1-1.1 2.2-2 1.2-0.9 2.5-1.8l1.3-0.8-0.3-0.7q-0.2-0.6-0.6-1.1-0.3-0.5-0.7-1-0.2-0.2-0.4-0.5 0.6-0.3 1.1-0.6 0.1 0.3 0.2 0.4v0.1h0.1q0 0.1 0.1 0.2 0.4 0.5 0.8 1.1 0.4 0.5 0.7 1.1 0.1 0.1 0.1 0.1 0 0.1 0.1 0.2 1.8-1.1 3.9-2.2 1.5-0.8 2.9-1.5 1.5-0.8 3-1.4 0.6-0.3 1.1-0.5 0.5-0.2 1.1-0.4 0.3-0.2 0.7-0.3 0.4-0.1 0.7-0.1zm-13.1-0.8q-0.2 0.1-0.5 0.4-0.5 0.4-1 0.9 0.2-0.2 0.4-0.3 0.1-0.1 0.3-0.2 0.2-0.2 0.4-0.4 0.2-0.2 0.4-0.4zm-3 13.9q0.5-0.5 1-1.3 0.2-0.4 0.3-0.8 0.2-0.5 0.3-0.9 0.2-0.6 0.2-1.5-0.5 0.3-0.9 0.5-0.4 0.3-0.8 0.6-0.7 0.5-1.2 0.9-0.6 0.5-1.2 1-0.2 0.2-0.4 0.4-0.3 0.3-0.5 0.5-0.1 0.1-0.2 0.2-0.1 0.1-0.2 0.2 0 0.1-0.1 0.1 0 0.1 0 0.1l-0.1 0.1q-0.1 0.2-0.3 0.4-0.1 0.2-0.1 0.4l-0.2 0.4 0.1 0.1v0.1 0.2q0 0.1 0.1 0.2 0 0 0 0.1 0 0 0 0 0.1 0 0.1 0.1h0.1v0.1h0.1 0.1 0.1 0.1l0.3-0.1h0.2l0.6-0.2q0.3-0.1 0.7-0.4 0 0 0 0 0.1 0 0.1 0h0.1q0 0 0-0.1 0 0 0.1 0l0.2-0.2q0.4-0.3 0.7-0.6 0.3-0.2 0.6-0.6zm-101.6-18.9q0-0.1-0.1-0.1 0.1 0 0.1 0.1zm16.6 24.8h-0.1zm81.2-3.8q0 0.1 0.1 0.1l-0.1-0.1q-0.1 0-0.1 0 0 0 0.1 0 0 0 0 0z"/></g></svg>